<svg width="4" height="10" viewBox="0 0 4 18" fill="none" xmlns="http://www.w3.org/2000/svg">
<path d="M5.91011 3.22303H8.1264C8.32234 3.22303 8.51024 3.13991 8.64879 2.99198C8.78733 2.84404 8.86517 2.64339 8.86517 2.43418V0.856477C8.86517 0.647261 8.78733 0.446614 8.64879 0.298676C8.51024 0.150738 8.32234 0.067627 8.1264 0.067627H5.91011C4.93045 0.067627 3.99091 0.48318 3.29819 1.22287C2.60546 1.96256 2.21629 2.9658 2.21629 4.01188V6.37842H0.738764C0.542832 6.37842 0.354924 6.46153 0.216379 6.60947C0.077834 6.75741 0 6.95806 0 7.16727V8.74497C0 8.95419 0.077834 9.15484 0.216379 9.30277C0.354924 9.45071 0.542832 9.53382 0.738764 9.53382H2.21629V15.0558C2.21629 15.265 2.29413 15.4656 2.43267 15.6136C2.57122 15.7615 2.75912 15.8446 2.95506 15.8446H4.43258C4.62852 15.8446 4.81642 15.7615 4.95497 15.6136C5.09351 15.4656 5.17135 15.265 5.17135 15.0558V9.53382H6.8114C6.98016 9.53907 7.14552 9.48244 7.27993 9.37336C7.41435 9.26428 7.50972 9.10932 7.55017 8.9343L7.91955 7.3566C7.94695 7.23848 7.94839 7.11519 7.92375 6.99638C7.89911 6.87757 7.84906 6.76646 7.77752 6.67173C7.70598 6.57701 7.61489 6.50124 7.51136 6.45036C7.40784 6.39947 7.2947 6.37485 7.18079 6.37842H5.17135V4.01188C5.17135 3.80266 5.24918 3.60201 5.38773 3.45407C5.52627 3.30614 5.71418 3.22303 5.91011 3.22303Z" fill="#F2F2F2"/>
</svg>
