<svg width="32" height="32" viewBox="0 0 32 32" fill="none" xmlns="http://www.w3.org/2000/svg">
<path d="M4 13.1388C4 11.7735 5.10681 10.6667 6.47213 10.6667C7.40851 10.6667 8.26452 10.1377 8.68328 9.30015L9.77777 7.11115C9.92439 6.81793 9.99769 6.67132 10.0808 6.5438C10.5145 5.87847 11.2222 5.44108 12.0113 5.35069C12.1625 5.33337 12.3265 5.33337 12.6543 5.33337H19.3457C19.6736 5.33337 19.8375 5.33337 19.9887 5.35069C20.7777 5.44108 21.4855 5.87847 21.9192 6.5438C22.0023 6.67132 22.0756 6.81793 22.2223 7.11115L23.3167 9.30015C23.7355 10.1377 24.5915 10.6667 25.5279 10.6667C26.8932 10.6667 28 11.7735 28 13.1388V19.8095C28 22.4826 28 23.8191 27.3869 24.7948C27.0672 25.3036 26.6369 25.7339 26.1281 26.0536C25.1524 26.6667 23.8159 26.6667 21.1428 26.6667H10.8571C8.18413 26.6667 6.84761 26.6667 5.87187 26.0536C5.36305 25.7339 4.93281 25.3036 4.61311 24.7948C4 23.8191 4 22.4826 4 19.8095V13.1388Z" stroke="#688AA5" stroke-width="2.66667"/>
<path d="M15.9999 22.0001C18.5772 22.0001 20.6666 19.9107 20.6666 17.3334C20.6666 14.7561 18.5772 12.6667 15.9999 12.6667C13.4226 12.6667 11.3333 14.7561 11.3333 17.3334C11.3333 19.9107 13.4226 22.0001 15.9999 22.0001Z" stroke="#688AA5" stroke-width="2.66667"/>
</svg>
