<svg width="20" height="19" viewBox="0 0 20 19" fill="none" xmlns="http://www.w3.org/2000/svg">
<g clip-path="url(#clip0_108_520)">
<path d="M15.9849 4.74763V4.74822C15.9849 5.33841 15.5063 5.81638 14.9167 5.81638C14.3271 5.81638 13.8486 5.33782 13.8486 4.74822C13.8486 4.15804 14.3271 3.68007 14.9167 3.68007C15.5063 3.68066 15.9843 4.15804 15.9849 4.74763ZM10.1632 12.4682C8.52381 12.4682 7.195 11.1393 7.195 9.50001C7.195 7.86066 8.52381 6.53185 10.1632 6.53185C11.8025 6.53185 13.1313 7.86066 13.1313 9.50001V9.5006C13.1313 11.1393 11.8031 12.4676 10.1643 12.4676H10.1637L10.1632 12.4682ZM10.1632 4.92813C7.63793 4.92813 5.59128 6.97538 5.59128 9.50001C5.59128 12.0246 7.63853 14.0719 10.1632 14.0719C12.6884 14.0719 14.735 12.0246 14.735 9.50001C14.735 9.50001 14.735 9.50001 14.735 9.49941C14.735 6.97479 12.6884 4.92754 10.1632 4.92754C10.1632 4.92754 10.1632 4.92754 10.1626 4.92754L10.1632 4.92813ZM10.1632 2.19926C12.5399 2.19926 12.8232 2.21113 13.7619 2.2521C14.3574 2.25922 14.9238 2.37204 15.4481 2.57154L15.4143 2.56026C16.1945 2.86426 16.8001 3.46988 17.0976 4.22988L17.1047 4.25007C17.2923 4.74051 17.4039 5.30754 17.4111 5.89951V5.90247C17.4532 6.84179 17.4627 7.12382 17.4627 9.50119C17.4627 11.8786 17.4514 12.1612 17.4081 13.0999C17.3968 13.696 17.2834 14.2625 17.0845 14.7868L17.0958 14.7523C16.9426 15.1537 16.7158 15.4957 16.429 15.7771L16.4284 15.7777C16.1476 16.0651 15.8056 16.2919 15.4238 16.4362L15.4048 16.4427C14.9126 16.6304 14.3437 16.742 13.7494 16.7491H13.7464C12.8012 16.7913 12.5227 16.8008 10.1412 16.8008C7.75847 16.8008 7.48059 16.7895 6.53593 16.7461C5.93743 16.7349 5.36862 16.6214 4.84197 16.4225L4.877 16.4338C4.47562 16.283 4.13362 16.0556 3.85456 15.7676L3.85397 15.767C3.56362 15.488 3.33562 15.1454 3.19253 14.7618L3.18659 14.7434C2.99956 14.2518 2.88615 13.6836 2.87487 13.0898V13.0851C2.84162 12.1499 2.82975 11.8614 2.82975 9.4911C2.82975 7.11966 2.84162 6.83051 2.87487 5.88407C2.88615 5.28616 2.99897 4.71794 3.19787 4.19188L3.18659 4.22691C3.33325 3.82376 3.56184 3.48057 3.85337 3.20329L3.85456 3.2021C4.13243 2.90997 4.47503 2.68257 4.85918 2.54185L4.87759 2.53591C5.36625 2.3471 5.9309 2.23369 6.52109 2.2236H6.52525C7.47109 2.19035 7.74956 2.17907 10.1305 2.17907L10.1632 2.19926ZM10.1632 0.59613C7.74422 0.59613 7.44259 0.607412 6.49259 0.649568C5.71181 0.666193 4.9714 0.817005 4.28622 1.07885L4.33134 1.06401C3.71384 1.29972 3.18778 1.64944 2.75434 2.09001L2.75375 2.0906C2.3114 2.52404 1.96228 3.05069 1.73665 3.63851L1.72656 3.66819C1.47956 4.30826 1.32875 5.04926 1.31271 5.82232V5.82944C1.26818 6.77944 1.25928 7.08107 1.25928 9.50001C1.25928 11.9189 1.27056 12.2206 1.31271 13.1706C1.32934 13.9514 1.48015 14.6918 1.742 15.3769L1.72715 15.3318C2.19978 16.5318 3.13137 17.4634 4.30047 17.9253L4.33134 17.936C4.9714 18.1824 5.7124 18.3332 6.48547 18.3499H6.49259C7.44259 18.3944 7.74422 18.4033 10.1632 18.4033C12.5821 18.4033 12.8837 18.392 13.8337 18.3499C14.6145 18.3326 15.3549 18.1824 16.0401 17.9206L15.995 17.936C17.1949 17.4634 18.1265 16.5318 18.5885 15.3627L18.5992 15.3318C18.8462 14.6918 18.9964 13.9508 19.013 13.1777V13.1706C19.0575 12.2206 19.0664 11.9189 19.0664 9.50001C19.0664 7.08107 19.0552 6.77944 19.013 5.82944C18.9958 5.04866 18.8456 4.30826 18.5837 3.62307L18.5992 3.66819C18.3628 3.05069 18.0137 2.52463 17.5726 2.09119L17.572 2.0906C17.1385 1.64826 16.6119 1.29913 16.0241 1.07351L15.9944 1.06341C15.3543 0.816412 14.6133 0.665599 13.8402 0.649568H13.8331C12.8831 0.605037 12.5815 0.59613 10.1626 0.59613H10.1632Z" fill="#F2F2F2"/>
</g>
<defs>
<clipPath id="clip0_108_520">
<rect width="19" height="19" fill="white" transform="translate(0.663086)"/>
</clipPath>
</defs>
</svg>
