<svg width="215" height="54" viewBox="0 0 215 54" fill="none" xmlns="http://www.w3.org/2000/svg">
<g clip-path="url(#clip0_108_536)">
<path d="M64.8511 38.6208H79.9668V33.8793H70.2235V16.0198H64.8511V38.6208Z" fill="#F2F2F2"/>
<path d="M88.9221 35.4598C86.767 35.4598 85.644 33.5 85.644 30.5603C85.644 27.6206 86.767 25.6292 88.9221 25.6292C91.0772 25.6292 92.2306 27.6206 92.2306 30.5603C92.2306 33.5 91.0772 35.4598 88.9221 35.4598ZM88.9525 39.1266C93.9607 39.1266 97.2388 35.4282 97.2388 30.5603C97.2388 25.6924 93.9607 21.9941 88.9525 21.9941C83.9746 21.9941 80.6357 25.6924 80.6357 30.5603C80.6357 35.4282 83.9746 39.1266 88.9525 39.1266Z" fill="#F2F2F2"/>
<path d="M105.908 44.2157C108.215 44.2157 110.248 43.6784 111.614 42.414C112.859 41.2444 113.678 39.4743 113.678 37.0403V22.4366H108.943V24.1751H108.883C107.972 22.8159 106.576 21.9625 104.512 21.9625C100.657 21.9625 97.9858 25.3131 97.9858 30.0546C97.9858 35.0173 101.234 37.7357 104.724 37.7357C106.606 37.7357 107.79 36.9455 108.7 35.8708H108.822V37.4829C108.822 39.4427 107.942 40.5806 105.847 40.5806C104.208 40.5806 103.389 39.8536 103.115 39.0001H98.3197C98.8054 42.3824 101.628 44.2157 105.908 44.2157ZM105.878 33.911C104.026 33.911 102.812 32.3305 102.812 29.8965C102.812 27.431 104.026 25.8505 105.878 25.8505C107.942 25.8505 109.034 27.6838 109.034 29.8649C109.034 32.1408 108.033 33.911 105.878 33.911Z" fill="#F2F2F2"/>
<path d="M123.414 35.4598C121.259 35.4598 120.136 33.5 120.136 30.5603C120.136 27.6206 121.259 25.6292 123.414 25.6292C125.569 25.6292 126.722 27.6206 126.722 30.5603C126.722 33.5 125.569 35.4598 123.414 35.4598ZM123.445 39.1266C128.452 39.1266 131.73 35.4282 131.73 30.5603C131.73 25.6924 128.452 21.9941 123.445 21.9941C118.467 21.9941 115.128 25.6924 115.128 30.5603C115.128 35.4282 118.467 39.1266 123.445 39.1266Z" fill="#F2F2F2"/>
<path d="M133.176 38.6206H138.124V22.4364H133.176V38.6206ZM133.176 20.1921H138.124V16.0197H133.176V20.1921Z" fill="#F2F2F2"/>
<path d="M140.27 43.9629H145.218V36.9455H145.278C146.25 38.3047 147.676 39.1266 149.679 39.1266C153.747 39.1266 156.448 35.7759 156.448 30.5287C156.448 25.6608 153.929 21.9625 149.801 21.9625C147.676 21.9625 146.158 22.9424 145.096 24.3964H145.005V22.4366H140.27V43.9629ZM148.405 35.1437C146.28 35.1437 145.066 33.342 145.066 30.7184C145.066 28.0948 146.158 26.1033 148.314 26.1033C150.438 26.1033 151.44 27.9367 151.44 30.7184C151.44 33.4684 150.286 35.1437 148.405 35.1437Z" fill="#F2F2F2"/>
<path d="M164.503 39.1266C168.57 39.1266 171.575 37.2932 171.575 33.7529C171.575 29.612 168.358 28.885 165.626 28.4109C163.653 28.0315 161.892 27.8735 161.892 26.7355C161.892 25.724 162.833 25.2499 164.047 25.2499C165.413 25.2499 166.354 25.6924 166.536 27.1465H171.089C170.846 23.9539 168.479 21.9625 164.078 21.9625C160.405 21.9625 157.37 23.7326 157.37 27.1465C157.37 30.9396 160.253 31.6983 162.955 32.1724C165.019 32.5517 166.901 32.7098 166.901 34.1638C166.901 35.207 165.96 35.7759 164.472 35.7759C162.833 35.7759 161.801 34.9857 161.619 33.3736H156.945C157.097 36.9455 159.95 39.1266 164.503 39.1266Z" fill="#F2F2F2"/>
<path d="M178.296 39.0949C180.451 39.0949 181.816 38.2099 182.94 36.6294H183.031V38.6208H187.766V22.4366H182.818V31.477C182.818 33.4052 181.786 34.7328 180.086 34.7328C178.508 34.7328 177.749 33.7529 177.749 31.9827V22.4366H172.832V33.0575C172.832 36.661 174.714 39.0949 178.296 39.0949Z" fill="#F2F2F2"/>
<path d="M189.918 38.6208H194.866V29.5488C194.866 27.6206 195.777 26.2614 197.325 26.2614C198.812 26.2614 199.51 27.2729 199.51 29.0114V38.6208H204.458V29.5488C204.458 27.6206 205.338 26.2614 206.916 26.2614C208.403 26.2614 209.102 27.2729 209.102 29.0114V38.6208H214.049V28.0948C214.049 24.4596 212.289 21.9625 208.768 21.9625C206.764 21.9625 205.095 22.8475 203.881 24.8073H203.82C203.031 23.0688 201.483 21.9625 199.449 21.9625C197.203 21.9625 195.716 23.0688 194.745 24.7441H194.654V22.4366H189.918V38.6208Z" fill="#F2F2F2"/>
<path fill-rule="evenodd" clip-rule="evenodd" d="M25.4222 53.1086C39.3919 53.1086 50.7164 41.3151 50.7164 26.7671C50.7164 12.2192 39.3919 0.42572 25.4222 0.42572C11.4527 0.42572 0.128174 12.2192 0.128174 26.7671C0.128174 41.3151 11.4527 53.1086 25.4222 53.1086ZM29.3264 20.7779C31.4825 18.5324 31.4825 14.8919 29.3264 12.6464C27.1702 10.4009 23.6744 10.4009 21.5182 12.6464C19.3621 14.8919 19.3621 18.5324 21.5182 20.7779L25.4222 24.8435L29.3264 20.7779ZM31.1735 30.8329C33.3297 33.0784 36.8255 33.0784 38.9817 30.8329C41.1377 28.5875 41.1377 24.9469 38.9817 22.7015C36.8255 20.4561 33.3297 20.4561 31.1735 22.7015L27.2695 26.7673L31.1735 30.8329ZM29.3264 40.888C31.4825 38.6425 31.4825 35.002 29.3264 32.7565L25.4222 28.6908L21.5182 32.7565C19.3621 35.002 19.3621 38.6425 21.5182 40.888C23.6744 43.1335 27.1702 43.1335 29.3264 40.888ZM11.8629 30.8329C9.70679 28.5875 9.70679 24.9469 11.8629 22.7015C14.0191 20.4561 17.5149 20.4561 19.6711 22.7015L23.5751 26.7673L19.6711 30.8329C17.5149 33.0784 14.0191 33.0784 11.8629 30.8329Z" fill="#F2F2F2"/>
</g>
<defs>
<clipPath id="clip0_108_536">
<rect width="215" height="54" rx="20" fill="white"/>
</clipPath>
</defs>
</svg>
