<svg width="163" height="41" viewBox="0 0 163 41" fill="none" xmlns="http://www.w3.org/2000/svg">
<g clip-path="url(#clip0_75_8)">
<path d="M49.166 29.3231H60.6259V25.7231H53.2391V12.1631H49.166V29.3231Z" fill="#2F537D"/>
<path d="M67.4155 26.9232C65.7817 26.9232 64.9302 25.4352 64.9302 23.2032C64.9302 20.9712 65.7817 19.4592 67.4155 19.4592C69.0493 19.4592 69.9238 20.9712 69.9238 23.2032C69.9238 25.4352 69.0493 26.9232 67.4155 26.9232ZM67.4385 29.7072C71.2355 29.7072 73.7207 26.8992 73.7207 23.2032C73.7207 19.5072 71.2355 16.6992 67.4385 16.6992C63.6646 16.6992 61.1333 19.5072 61.1333 23.2032C61.1333 26.8992 63.6646 29.7072 67.4385 29.7072Z" fill="#2F537D"/>
<path d="M80.2929 33.5713C82.0418 33.5713 83.5836 33.1633 84.6191 32.2033C85.5626 31.3153 86.184 29.9713 86.184 28.1233V17.0353H82.5941V18.3553H82.5481C81.8577 17.3233 80.7992 16.6753 79.2344 16.6753C76.3119 16.6753 74.2869 19.2193 74.2869 22.8193C74.2869 26.5873 76.7491 28.6513 79.3955 28.6513C80.8222 28.6513 81.7197 28.0513 82.41 27.2353H82.5021V28.4593C82.5021 29.9473 81.8347 30.8113 80.2469 30.8113C79.0043 30.8113 78.383 30.2593 78.1759 29.6113H74.54C74.9082 32.1793 77.0483 33.5713 80.2929 33.5713ZM80.2699 25.7473C78.8662 25.7473 77.9457 24.5473 77.9457 22.6993C77.9457 20.8273 78.8662 19.6273 80.2699 19.6273C81.8347 19.6273 82.6631 21.0193 82.6631 22.6753C82.6631 24.4033 81.9038 25.7473 80.2699 25.7473Z" fill="#2F537D"/>
<path d="M93.5652 26.9232C91.9313 26.9232 91.0799 25.4352 91.0799 23.2032C91.0799 20.9712 91.9313 19.4592 93.5652 19.4592C95.199 19.4592 96.0731 20.9712 96.0731 23.2032C96.0731 25.4352 95.199 26.9232 93.5652 26.9232ZM93.5882 29.7072C97.3847 29.7072 99.87 26.8992 99.87 23.2032C99.87 19.5072 97.3847 16.6992 93.5882 16.6992C89.8142 16.6992 87.283 19.5072 87.283 23.2032C87.283 26.8992 89.8142 29.7072 93.5882 29.7072Z" fill="#2F537D"/>
<path d="M100.966 29.3231H104.717V17.0351H100.966V29.3231ZM100.966 15.3311H104.717V12.1631H100.966V15.3311Z" fill="#2F537D"/>
<path d="M106.344 33.3793H110.095V28.0513H110.141C110.877 29.0833 111.959 29.7073 113.478 29.7073C116.561 29.7073 118.609 27.1633 118.609 23.1793C118.609 19.4833 116.699 16.6753 113.57 16.6753C111.959 16.6753 110.808 17.4193 110.003 18.5233H109.934V17.0353H106.344V33.3793ZM112.511 26.6833C110.9 26.6833 109.98 25.3153 109.98 23.3233C109.98 21.3313 110.808 19.8193 112.442 19.8193C114.053 19.8193 114.812 21.2113 114.812 23.3233C114.812 25.4113 113.938 26.6833 112.511 26.6833Z" fill="#2F537D"/>
<path d="M124.716 29.7073C127.8 29.7073 130.078 28.3153 130.078 25.6273C130.078 22.4833 127.639 21.9313 125.567 21.5713C124.072 21.2833 122.737 21.1633 122.737 20.2993C122.737 19.5313 123.45 19.1713 124.371 19.1713C125.406 19.1713 126.12 19.5073 126.258 20.6113H129.71C129.525 18.1873 127.731 16.6753 124.394 16.6753C121.609 16.6753 119.308 18.0193 119.308 20.6113C119.308 23.4913 121.494 24.0673 123.542 24.4273C125.107 24.7153 126.534 24.8353 126.534 25.9393C126.534 26.7313 125.821 27.1633 124.693 27.1633C123.45 27.1633 122.668 26.5633 122.53 25.3393H118.986C119.101 28.0513 121.264 29.7073 124.716 29.7073Z" fill="#2F537D"/>
<path d="M135.173 29.6832C136.807 29.6832 137.842 29.0112 138.694 27.8112H138.763V29.3232H142.353V17.0352H138.602V23.8992C138.602 25.3632 137.819 26.3712 136.531 26.3712C135.334 26.3712 134.759 25.6272 134.759 24.2832V17.0352H131.031V25.0992C131.031 27.8352 132.458 29.6832 135.173 29.6832Z" fill="#2F537D"/>
<path d="M143.985 29.3233H147.736V22.4353C147.736 20.9713 148.426 19.9393 149.599 19.9393C150.727 19.9393 151.256 20.7073 151.256 22.0273V29.3233H155.007V22.4353C155.007 20.9713 155.675 19.9393 156.871 19.9393C157.999 19.9393 158.528 20.7073 158.528 22.0273V29.3233H162.279V21.3313C162.279 18.5713 160.944 16.6753 158.275 16.6753C156.756 16.6753 155.49 17.3473 154.57 18.8353H154.524C153.926 17.5153 152.752 16.6753 151.21 16.6753C149.507 16.6753 148.38 17.5153 147.643 18.7873H147.574V17.0353H143.985V29.3233Z" fill="#2F537D"/>
<path fill-rule="evenodd" clip-rule="evenodd" d="M19.2736 40.3232C29.8646 40.3232 38.4501 31.3689 38.4501 20.3232C38.4501 9.27754 29.8646 0.323242 19.2736 0.323242C8.68275 0.323242 0.097168 9.27754 0.097168 20.3232C0.097168 31.3689 8.68275 40.3232 19.2736 40.3232ZM22.2335 15.7758C23.8681 14.0709 23.8681 11.3068 22.2335 9.6019C20.5988 7.89702 17.9485 7.89702 16.3138 9.6019C14.6792 11.3068 14.6792 14.0709 16.3138 15.7758L19.2736 18.8627L22.2335 15.7758ZM23.6338 23.4102C25.2685 25.1151 27.9188 25.1151 29.5535 23.4102C31.1881 21.7053 31.1881 18.9412 29.5535 17.2363C27.9188 15.5315 25.2685 15.5315 23.6338 17.2363L20.6741 20.3233L23.6338 23.4102ZM22.2335 31.0446C23.8681 29.3397 23.8681 26.5756 22.2335 24.8707L19.2736 21.7838L16.3138 24.8707C14.6792 26.5756 14.6792 29.3397 16.3138 31.0446C17.9485 32.7495 20.5988 32.7495 22.2335 31.0446ZM8.99374 23.4102C7.35909 21.7053 7.35909 18.9412 8.99374 17.2363C10.6285 15.5315 13.2787 15.5315 14.9134 17.2363L17.8732 20.3233L14.9134 23.4102C13.2787 25.1151 10.6285 25.1151 8.99374 23.4102Z" fill="#688AA5"/>
</g>
<defs>
<clipPath id="clip0_75_8">
<rect width="163" height="41" rx="20" fill="white"/>
</clipPath>
</defs>
</svg>
