<svg width="125" height="125" viewBox="0 0 125 125" fill="none" xmlns="http://www.w3.org/2000/svg">
<g clip-path="url(#clip0_108_458)">
<path d="M63.6179 81.5973C74.823 81.5973 83.9066 72.5137 83.9066 61.3085C83.9066 50.1034 74.823 41.0198 63.6179 41.0198C52.4127 41.0198 43.3291 50.1034 43.3291 61.3085C43.3291 72.5137 52.4127 81.5973 63.6179 81.5973Z" fill="#A0616A"/>
<path d="M46.8247 86.1403L51.054 75.3321L72.9055 72.0426L75.2533 95.9681L53.1668 96.438L46.8247 86.1403Z" fill="#A0616A"/>
<path d="M84.1033 65.052C83.84 66.1069 83.3077 68.6186 82.4764 68.631C81.7973 68.6409 81.1473 57.7441 81.8257 55.9417C82.6049 53.871 80.5572 51.2517 79.0146 49.9071C76.241 47.4895 70.0844 52.6808 63.824 50.3291C63.658 50.2669 63.6911 50.2739 61.7142 49.4852C55.6311 47.0581 55.3113 46.988 54.9628 46.9534C52.0139 46.6616 48.4151 49.0747 46.9455 52.0169C45.4179 55.0753 46.6943 57.6986 45.2577 65.0977C45.0903 65.9602 44.8274 67.1894 44.4138 67.2075C43.6576 67.2405 42.9193 63.2018 42.7259 62.144C41.9158 57.7122 41.1347 53.4394 42.7259 48.6412C42.8995 48.1179 43.9692 46.1754 46.1016 42.3118C49.1736 36.746 50.7187 33.9525 51.1651 33.4506C54.3674 29.8495 60.1961 26.5645 65.0899 27.9651C67.5633 28.6731 67.1198 29.8112 70.1534 30.9189C75.5595 32.8927 80.2579 30.4788 81.1244 32.1847C81.5834 33.0884 80.2991 33.8334 80.2805 35.5604C80.2485 38.5236 83.9962 39.3799 86.1879 42.3118C87.3661 43.888 89.3828 43.9049 84.1033 65.052L84.1033 65.052V65.052Z" fill="#2F2E41"/>
<path d="M109.239 103.997C108.421 104.916 107.573 105.815 106.694 106.694C94.8896 118.499 79.1941 125 62.5001 125C48.071 125 34.3892 120.143 23.3201 111.203C23.313 111.199 23.3083 111.194 23.3013 111.187C21.8328 110.003 20.4113 108.743 19.0391 107.413C19.0649 107.206 19.0931 107.002 19.1236 106.8C19.3163 105.437 19.5302 104.138 19.7698 102.942C21.7317 93.1392 47.5471 82.8479 48.219 82.5799C48.2284 82.5776 48.2331 82.5753 48.2331 82.5753C48.2331 82.5753 51.5555 94.8216 65.7919 94.6642C75.4888 94.5584 73.6091 82.5753 73.6091 82.5753C73.6091 82.5753 73.7266 82.5987 73.9474 82.6458C76.7481 83.2403 96.1937 87.5118 103.865 93.3414C106.203 95.1176 107.881 98.9006 109.086 103.412C109.138 103.604 109.187 103.802 109.239 103.997Z" fill="#6C63FF"/>
<path d="M106.694 18.306C94.8896 6.50162 79.1941 0 62.5 0C45.8059 0 30.1105 6.50162 18.3059 18.306C6.50145 30.1105 0 45.806 0 62.5C0 77.7374 5.41589 92.1429 15.3407 103.517C16.2876 104.605 17.2768 105.665 18.3059 106.694C18.5479 106.936 18.7923 107.178 19.039 107.413C20.4112 108.743 21.8327 110.003 23.3013 111.187C23.3083 111.194 23.313 111.198 23.32 111.203C34.3891 120.143 48.071 125 62.5 125C79.1941 125 94.8896 118.499 106.694 106.694C107.573 105.815 108.421 104.916 109.239 103.997C119.429 92.5495 125 77.9536 125 62.5C125 45.806 118.499 30.1105 106.694 18.306ZM109.086 103.412C107.237 105.515 105.249 107.493 103.134 109.328C99.1236 112.817 94.6593 115.797 89.845 118.17C88.1555 119.004 86.4239 119.763 84.6523 120.442C77.7702 123.083 70.3007 124.53 62.5 124.53C54.9718 124.53 47.7538 123.182 41.0738 120.714C38.3317 119.704 35.6814 118.503 33.1368 117.129C32.7631 116.927 32.3919 116.722 32.023 116.513C30.0822 115.414 28.2049 114.213 26.4028 112.916C23.8205 111.064 21.3863 109.018 19.1236 106.8C17.8548 105.557 16.6424 104.262 15.4841 102.916C6.13019 92.0513 0.469925 77.9254 0.469925 62.5C0.469925 28.2967 28.2965 0.469925 62.5 0.469925C96.7035 0.469925 124.53 28.2967 124.53 62.5C124.53 78.1626 118.696 92.4859 109.086 103.412Z" fill="#3F3D56"/>
</g>
<defs>
<clipPath id="clip0_108_458">
<rect width="125" height="125" fill="white"/>
</clipPath>
</defs>
</svg>
