<svg width="68" height="68" viewBox="0 0 68 68" fill="none" xmlns="http://www.w3.org/2000/svg">
<path d="M45.375 19.125C39.425 19.125 34.75 23.8 34.75 29.75C34.75 35.7 39.425 40.375 45.375 40.375C46.0125 40.375 46.8625 40.375 47.5 40.1625C44.7375 42.925 41.125 44.625 36.875 44.625C35.6 44.625 34.75 45.475 34.75 46.75C34.75 48.025 35.6 48.875 36.875 48.875C47.5 48.875 56 40.375 56 29.75C56 23.8 51.325 19.125 45.375 19.125Z" fill="#F2F2F2"/>
<path d="M19.125 19.125C13.175 19.125 8.5 23.8 8.5 29.75C8.5 35.7 13.175 40.375 19.125 40.375C19.7625 40.375 20.6125 40.375 21.25 40.1625C18.4875 42.925 14.875 44.625 10.625 44.625C9.35 44.625 8.5 45.475 8.5 46.75C8.5 48.025 9.35 48.875 10.625 48.875C21.25 48.875 29.75 40.375 29.75 29.75C29.75 23.8 25.075 19.125 19.125 19.125Z" fill="#F2F2F2"/>
</svg>
