<svg width="40" height="40" viewBox="0 0 40 40" fill="none" xmlns="http://www.w3.org/2000/svg">
<path fill-rule="evenodd" clip-rule="evenodd" d="M13.3995 0.763783C17.7409 -0.254595 22.2591 -0.254595 26.6007 0.763783C32.8702 2.23443 37.7656 7.12983 39.2362 13.3995C40.2547 17.7409 40.2547 22.2591 39.2362 26.6007C37.7656 32.8702 32.8702 37.7656 26.6007 39.2362C22.2591 40.2547 17.7409 40.2547 13.3995 39.2362C7.12983 37.7656 2.23445 32.8702 0.763783 26.6007C-0.254595 22.2591 -0.254595 17.7409 0.763783 13.3994C2.23445 7.12981 7.12983 2.23443 13.3995 0.763783ZM24.4156 23.0298C24.9142 23.5282 25.7222 23.5282 26.2207 23.0298C26.7191 22.5313 26.7191 21.7231 26.2207 21.2247L20.9025 15.9065C20.6631 15.6671 20.3385 15.5326 20 15.5326C19.6613 15.5326 19.3367 15.6671 19.0973 15.9065L13.7792 21.2247C13.2807 21.7231 13.2807 22.5313 13.7792 23.0298C14.2776 23.5282 15.0858 23.5282 15.5842 23.0298L20 18.614L24.4156 23.0298Z" fill="#F2F2F2"/>
</svg>
