<svg width="20" height="19" viewBox="0 0 20 19" fill="none" xmlns="http://www.w3.org/2000/svg">
<g clip-path="url(#clip0_108_523)">
<path d="M16.061 3.20622C14.9063 2.04818 13.4344 1.25833 11.831 0.936441C10.2277 0.614555 8.56489 0.775079 7.05273 1.39773C5.54057 2.02039 4.24687 3.07724 3.33505 4.43478C2.42323 5.79232 1.93421 7.38964 1.92975 9.02497C1.91172 10.4732 2.29535 11.8982 3.03809 13.1416L1.85059 17.4166L6.24434 16.2687C7.45666 16.9337 8.82006 17.2745 10.2027 17.2583C11.8335 17.2649 13.4296 16.7871 14.7885 15.8853C16.1474 14.9836 17.2079 13.6985 17.8355 12.1932C18.4631 10.6879 18.6294 9.03015 18.3135 7.43015C17.9976 5.83016 17.2136 4.36003 16.061 3.20622ZM10.2027 15.8729C8.86731 15.8825 7.55895 15.4969 6.44225 14.7646L3.82975 15.4771L4.54225 12.9437C3.75537 11.7872 3.32841 10.4237 3.31517 9.02497C3.30733 7.6611 3.7046 6.3256 4.45663 5.18776C5.20866 4.04992 6.28158 3.16097 7.53939 2.6336C8.79721 2.10623 10.1833 1.96417 11.5219 2.22544C12.8606 2.48671 14.0915 3.13954 15.0587 4.10118C16.0259 5.06282 16.6858 6.28997 16.9548 7.62708C17.2238 8.96419 17.0897 10.3511 16.5696 11.6119C16.0495 12.8727 15.1667 13.9508 14.0332 14.7093C12.8998 15.4679 11.5666 15.8729 10.2027 15.8729Z" fill="#F2F2F2"/>
<path d="M13.963 10.7667C13.5038 10.5102 13.0277 10.2854 12.538 10.0937C12.3796 10.0146 12.2213 9.97499 12.1026 10.1729C11.9838 10.3708 11.5484 10.8458 11.4296 11.0042C11.3761 11.0655 11.3009 11.1038 11.2199 11.1112C11.1388 11.1185 11.058 11.0944 10.9942 11.0437C10.3877 10.7936 9.82607 10.446 9.33173 10.0146C8.87775 9.60174 8.49052 9.12104 8.18381 8.58957C8.16188 8.55877 8.14649 8.5238 8.13858 8.48681C8.13068 8.44983 8.13042 8.41163 8.13784 8.37455C8.14526 8.33746 8.16019 8.30229 8.18171 8.2712C8.20323 8.2401 8.23089 8.21374 8.26298 8.19374L8.57964 7.79791C8.65961 7.70177 8.72618 7.59524 8.77756 7.48124C8.80883 7.42708 8.82529 7.36565 8.82529 7.30312C8.82529 7.24058 8.80883 7.17915 8.77756 7.12499C8.69839 7.00624 8.30256 6.01666 8.14423 5.58124C7.98589 5.14582 7.78798 5.22499 7.66923 5.22499H7.27339C7.16558 5.2234 7.05897 5.24774 6.96252 5.29596C6.86608 5.34418 6.78264 5.41487 6.71923 5.50207C6.48307 5.7163 6.29685 5.97978 6.17374 6.2739C6.05062 6.56801 5.9936 6.88558 6.00673 7.20416C6.07574 7.98101 6.36401 8.72228 6.83798 9.34166C6.95673 9.46041 8.30256 11.5583 10.3609 12.4292C10.7416 12.6126 11.1393 12.7584 11.5484 12.8646C11.9694 13.0049 12.4198 13.0322 12.8546 12.9437C13.2505 12.9042 14.0817 12.4687 14.2401 11.9937C14.3984 11.5187 14.438 11.0833 14.3588 11.0042C14.2519 10.8892 14.1147 10.8069 13.963 10.7667Z" fill="#F2F2F2"/>
</g>
<defs>
<clipPath id="clip0_108_523">
<rect width="19" height="19" fill="white" transform="translate(0.663086)"/>
</clipPath>
</defs>
</svg>
